<?xml version="1.0" standalone="no"?>
<!DOCTYPE svg PUBLIC "-//W3C//DTD SVG 20010904//EN"
 "http://www.w3.org/TR/2001/REC-SVG-20010904/DTD/svg10.dtd">
<svg version="1.0" xmlns="http://www.w3.org/2000/svg"
 width="1502.000000pt" height="1502.000000pt" viewBox="0 0 1502.000000 1502.000000"
 preserveAspectRatio="xMidYMid meet">
<metadata>
Created by potrace 1.11, written by Peter Selinger 2001-2013
</metadata>
<g transform="translate(0.000000,1502.000000) scale(0.100000,-0.100000)"
fill="#000000" stroke="none">
<path d="M5709 13314 l-1694 -1694 1703 0 1702 0 0 1689 c0 930 -4 1692 -8
1695 -5 3 -771 -758 -1703 -1690z"/>
<path d="M5290 6415 l0 -2736 1633 4 c1617 3 1633 3 1784 25 354 51 605 123
844 242 410 205 656 520 735 945 28 149 26 441 -5 585 -59 277 -163 480 -343
666 -141 146 -309 257 -510 336 l-108 42 51 31 c345 202 569 521 644 915 27
140 25 391 -4 527 -120 569 -563 939 -1301 1087 -308 62 -223 59 -1892 63
l-1528 4 0 -2736z m2855 1751 c215 -42 361 -111 462 -220 102 -109 143 -220
143 -391 0 -340 -203 -543 -620 -621 -84 -16 -179 -18 -837 -22 l-743 -3 0
641 0 641 753 -4 c667 -3 762 -5 842 -21z m240 -2214 c276 -52 448 -149 551
-308 69 -107 102 -270 84 -423 -35 -311 -226 -482 -620 -557 -86 -17 -176 -19
-972 -22 l-878 -3 0 671 0 671 863 -4 c825 -4 867 -5 972 -25z"/>
</g>
</svg>
